<?xml version="1.0" encoding="utf-8"?>
<!-- Generator: Adobe Illustrator 16.0.0, SVG Export Plug-In . SVG Version: 6.00 Build 0)  -->
<!DOCTYPE svg PUBLIC "-//W3C//DTD SVG 1.1//EN" "http://www.w3.org/Graphics/SVG/1.1/DTD/svg11.dtd">
<svg version="1.1" id="Layer_1" xmlns="http://www.w3.org/2000/svg" xmlns:xlink="http://www.w3.org/1999/xlink" x="0px" y="0px"
	 width="30px" height="30px" viewBox="0 0 30 30" enable-background="new 0 0 30 30" xml:space="preserve">
<g>
	<polygon fill-rule="evenodd" clip-rule="evenodd" fill="#676767" points="22.282,20.28 22.282,20.28 22.282,20.28 	"/>
	<polygon fill-rule="evenodd" clip-rule="evenodd" fill="#676767" points="6.619,12.477 6.619,12.476 6.619,12.477 	"/>
	<path fill-rule="evenodd" clip-rule="evenodd" fill="#676767" d="M22.698,28.551c2.686-0.166,4.854-2.428,4.938-5.148
		c0.071-2.252-0.943-3.978-2.932-4.992c-1.984-1.011-3.956-0.804-5.781,0.602c-0.216,0.165-0.4,0.238-0.6,0.238c0,0,0,0-0.001,0
		c-0.137,0-0.275-0.034-0.449-0.111c-1.08-0.476-2.164-0.946-3.248-1.415c-0.77-0.332-1.539-0.666-2.307-1.001
		c-0.109-0.048-0.413-0.244-0.375-0.506c0.101-0.718,0.065-1.422-0.109-2.153l-0.044-0.193l0.271-0.157
		c0.063-0.036,0.123-0.071,0.184-0.104l1.669-0.884c1.483-0.785,2.967-1.57,4.447-2.363c0.333-0.18,0.606-0.07,0.794,0.062
		c1.267,0.891,2.655,1.201,4.14,0.919c2.792-0.531,4.73-3.215,4.32-5.983c-0.429-2.899-2.976-4.957-5.888-4.641
		c-1.554,0.167-2.954,0.994-3.843,2.269c-0.892,1.279-1.182,2.888-0.8,4.413c0.085,0.333-0.01,0.553-0.307,0.708
		c-2.024,1.063-4.046,2.134-6.066,3.208c-0.291,0.158-0.543,0.035-0.67-0.068c-1.199-0.971-2.57-1.374-4.101-1.195
		c-1.403,0.162-2.716,0.924-3.603,2.092c-0.875,1.151-1.25,2.593-1.035,3.959c0.338,2.154,1.523,3.609,3.521,4.324
		c1.967,0.701,3.818,0.319,5.456-1.128c0.117-0.103,0.263-0.207,0.466-0.207c0.093,0,0.191,0.023,0.299,0.07
		c1.858,0.813,3.724,1.617,5.587,2.412c0.358,0.153,0.394,0.404,0.377,0.652l-0.025,0.356c-0.035,0.458-0.072,0.935-0.011,1.372
		C17.368,26.739,19.834,28.73,22.698,28.551z M20.045,21.191c0.6-0.602,1.393-0.691,2.237-0.691h0.002
		c1.732,0,3.148,1.178,3.157,2.92c0.01,1.738-1.387,3.04-3.111,3.052c-1.793,0-3.192-1.319-3.206-3.082
		C19.118,22.537,19.445,21.797,20.045,21.191z M22.398,2.5H22.4c1.803,0,3.273,1.854,3.276,3.556
		c0.005,1.701-1.458,3.329-3.259,3.344c-0.894,0-1.712-0.206-2.331-0.792c-0.622-0.59-0.965-1.781-0.963-2.612
		C19.129,4.293,20.598,2.5,22.398,2.5z M6.634,18.5H6.633c-0.85,0-1.645-0.307-2.242-0.904c-0.599-0.596-0.927-1.23-0.925-2.07
		C3.47,13.771,4.884,12.5,6.619,12.5h0.017c1.74,0,3.152,1.279,3.148,3.037C9.777,17.264,8.364,18.5,6.634,18.5z"/>
</g>
</svg>
