<svg id="Capa_1" data-name="Capa 1" xmlns="http://www.w3.org/2000/svg" viewBox="0 0 512 512"><defs><style>.cls-1{fill:#7d7d7d;}</style></defs><title>search83</title><path class="cls-1" d="M31.12,523.79l15.09,15.09a10.67,10.67,0,0,0,15.08,0L210,390.14a201.64,201.64,0,0,0,127.31,45.19C449.08,435.33,540,344.42,540,232.67S449.08,30,337.33,30,134.67,120.92,134.67,232.67A201.64,201.64,0,0,0,179.86,360L31.13,508.71A10.66,10.66,0,0,0,31.12,523.79ZM177.33,232.67c0-88.23,71.77-160,160-160s160,71.77,160,160-71.77,160-160,160S177.33,320.9,177.33,232.67Z" transform="translate(-28 -30)"/></svg>